<svg id="Capa_1" data-name="Capa 1" xmlns="http://www.w3.org/2000/svg" xmlns:xlink="http://www.w3.org/1999/xlink" viewBox="0 0 36.58 8.59"><defs><style>.cls-1{fill:#439592;}.cls-2{fill:#4d4d4d;}</style><symbol id="icon_logo_coder" data-name="icon_logo_coder" viewBox="0 0 36.2 8.49"><path class="cls-1" d="M13.7,5.31a1.84,1.84,0,1,1-1.84-1.84A1.84,1.84,0,0,1,13.7,5.31Z"/><path class="cls-2" d="M7.83,1.63l-1.08,1A3.33,3.33,0,0,0,4.29,1.49,2.7,2.7,0,0,0,1.54,4.24,2.57,2.57,0,0,0,2.89,6.66,2.88,2.88,0,0,0,4.31,7a2.91,2.91,0,0,0,1.35-.31,4.76,4.76,0,0,0,1.1-.86l1,1.09A6,6,0,0,1,6.21,8.11a4.56,4.56,0,0,1-1.92.38A4.2,4.2,0,0,1,1.2,7.31,4.13,4.13,0,0,1,0,4.23,3.92,3.92,0,0,1,2.12.57,4.4,4.4,0,0,1,4.31,0,4.45,4.45,0,0,1,7.83,1.63ZM22.14,8.29h-1.5V7.66a2.63,2.63,0,0,1-3.9-.17A3.24,3.24,0,0,1,16,5.31a3.33,3.33,0,0,1,.75-2.19A2.64,2.64,0,0,1,20.64,3V0h1.5Zm-1.43-3A1.79,1.79,0,0,0,20.26,4a1.53,1.53,0,0,0-1.19-.5,1.5,1.5,0,0,0-1.18.52,1.8,1.8,0,0,0-.43,1.23,1.82,1.82,0,0,0,.44,1.24,1.49,1.49,0,0,0,1.18.53,1.53,1.53,0,0,0,1.21-.52A1.85,1.85,0,0,0,20.71,5.29Zm8.64.16v.29H24.53a1.58,1.58,0,0,0,.57,1,1.79,1.79,0,0,0,1.14.36,2,2,0,0,0,1.44-.58L29,7.13a3.09,3.09,0,0,1-2.7,1.31A3.15,3.15,0,0,1,24,7.58a3,3,0,0,1-.9-2.24,3.15,3.15,0,0,1,.87-2.27,3,3,0,0,1,2.22-.91,3.08,3.08,0,0,1,2.3.9A3.19,3.19,0,0,1,29.35,5.45Zm-1.52-.9a1.46,1.46,0,0,0-.6-.82,1.74,1.74,0,0,0-1-.3,1.79,1.79,0,0,0-1.1.35,1.94,1.94,0,0,0-.55.77Zm8.36,2.11H34.55V8.31h1.65Zm-2.37-4.5a4,4,0,0,0-2.15.61V2H30.25V8.42h1.43V5.21a1.59,1.59,0,0,1,.17-.71,1.88,1.88,0,0,1,.46-.59,2.24,2.24,0,0,1,.68-.4,2.41,2.41,0,0,1,.83-.14h.72V2.17Zm-22,0A3.14,3.14,0,1,0,15,5.3,3.14,3.14,0,0,0,11.87,2.16Zm0,4.86A1.71,1.71,0,1,1,13.57,5.3,1.71,1.71,0,0,1,11.86,7Z"/></symbol></defs><title>30. credit_logo_coder</title><use width="36.19" height="8.49" transform="translate(0.19 0.05)" xlink:href="#icon_logo_coder"/></svg>