<svg id="Capa_1" data-name="Capa 1" xmlns="http://www.w3.org/2000/svg" xmlns:xlink="http://www.w3.org/1999/xlink" viewBox="0 0 108.78 76.83"><defs><style>.cls-1{fill:#9ea9af;}</style><symbol id="icon_no_imagen" data-name="icon_no_imagen" viewBox="0 0 108.21 76.44"><path class="cls-1" d="M108.21,72.14a4.3,4.3,0,0,1-4.3,4.3H4.3A4.3,4.3,0,0,1,0,72.14V4.3A4.3,4.3,0,0,1,4.3,0h99.61a4.3,4.3,0,0,1,4.3,4.3ZM103.92,4a.61.61,0,0,0-.61-.61H4A.61.61,0,0,0,3.44,4V72.39A.61.61,0,0,0,4,73H103.3a.61.61,0,0,0,.61-.61Z"/><circle class="cls-1" cx="31" cy="27.09" r="9.11"/><path class="cls-1" d="M85,33.29l-7.37,9L63.66,23.9,46,50c-3.6-3.1-11-4-16.63-4-8.77,0-15.87,5.75-15.87,12.84,0,.49-.07,2.95,0,3.43a8.62,8.62,0,0,0,1.33-.16l-1.33.64h81.3Z"/></symbol></defs><title>31. icon_no_imagen</title><use id="icon_no_imagen-3" data-name="icon_no_imagen" width="108.21" height="76.44" transform="translate(0.28 0.2)" xlink:href="#icon_no_imagen"/></svg>