<svg id="Capa_1" data-name="Capa 1" xmlns="http://www.w3.org/2000/svg" viewBox="0 0 536.62 114.16"><title>Mesa de trabajo 3</title><path d="M158.1,103.7H88.63V10.89H158.1v17H106V49.21h50.25V65.52H106V86.47H158.1Z" style="fill:#455a64"/><path d="M184.75,11V103.7h-16V11Z" style="fill:#455a64"/><path d="M211,76.79c1.06,8.09,8.09,13.92,19.49,13.92,6,0,13.79-2.25,17.5-6.1l10.34,10.21c-6.89,7.16-18.16,10.61-28.11,10.61-22.54,0-35.93-13.92-35.93-34.87,0-19.89,13.52-34.21,34.74-34.21,21.88,0,35.53,13.52,33,40.44ZM246.54,63.4c-1.06-8.49-7.69-12.73-17-12.73-8.75,0-15.91,4.24-18.3,12.73Z" style="fill:#455a64"/><path d="M328.87,95.35c-7.56,7.42-15.51,10.34-25.19,10.34-19,0-34.74-11.4-34.74-34.6s15.78-34.6,34.74-34.6c9.28,0,16.44,2.65,23.6,9.68L317.07,56.9a19.85,19.85,0,0,0-13.12-5.17c-10.87,0-18.83,8-18.83,19.36,0,12.46,8.49,19.09,18.56,19.09,5.17,0,10.34-1.46,14.32-5.44Z" style="fill:#455a64"/><path d="M357.11,19.91V38.47h18V52.39H357V80.63c0,6.23,3.45,9.28,8.49,9.28a18.48,18.48,0,0,0,7.82-2l4.51,13.79a36.13,36.13,0,0,1-13.39,2.78c-14.19.53-23.47-7.56-23.47-23.86V52.39h-12.2V38.47h12.2V21.63Z" style="fill:#455a64"/><path d="M400.46,38.34l1.19,7.56c5-8.09,11.8-9.28,18.43-9.28s13.26,2.65,16.84,6.23L429.63,56.9A16.16,16.16,0,0,0,418,52.66c-8.49,0-16.31,4.51-16.31,16.57V103.7H385.48V38.34Z" style="fill:#455a64"/><path d="M458.93,19.91c0,12.6-19.09,12.6-19.09,0S458.93,7.31,458.93,19.91ZM441.3,38.07V103.7h16.17V38.07Z" style="fill:#455a64"/><path d="M526.42,95.35c-7.56,7.42-15.51,10.34-25.19,10.34-19,0-34.74-11.4-34.74-34.6s15.78-34.6,34.74-34.6c9.28,0,16.44,2.65,23.6,9.68L514.62,56.9a19.85,19.85,0,0,0-13.13-5.17c-10.87,0-18.83,8-18.83,19.36,0,12.46,8.49,19.09,18.56,19.09,5.17,0,10.34-1.46,14.32-5.44Z" style="fill:#455a64"/><path d="M26.38,8.59,10.78,56.47H28.12L10.2,106.14,57.6,47.49H40.84l22-38.9Zm0,0" style="fill:#455a64"/></svg>