<svg id="Capa_1" data-name="Capa 1" xmlns="http://www.w3.org/2000/svg" xmlns:xlink="http://www.w3.org/1999/xlink" viewBox="0 0 108.89 130.24"><defs><style>.cls-1{opacity:0.4;}.cls-2{fill:#9ea9af;}</style><symbol id="icon_escoger_usuarios" data-name="icon_escoger_usuarios" viewBox="0 0 107.51 128.59"><g class="cls-1"><path class="cls-2" d="M8.92,38.48a29.56,29.56,0,1,1,57.42,9.89l8.4,3A38.48,38.48,0,1,0,25,74.53l3.12-8.36A29.7,29.7,0,0,1,8.92,38.48Zm0,0"/><path class="cls-2" d="M38.48,23.78a14.71,14.71,0,0,1,14.7,14.69c0,.08,0,.15,0,.22v.19l8.92.25V39c0-.18,0-.35,0-.53A23.61,23.61,0,1,0,23.81,57l5.55-7a14.68,14.68,0,0,1,9.12-26.2Zm0,0"/><path class="cls-2" d="M38.48,38.48V128.6L65.42,96.25l42.1.15Zm0,0"/></g></symbol></defs><title>35. icon_escoger_usuarios</title><use id="icon_escoger_usuarios-3" data-name="icon_escoger_usuarios" width="107.51" height="128.6" transform="translate(0.69 0.82)" xlink:href="#icon_escoger_usuarios"/></svg>